<mxfile host="65bd71144e">
    <diagram id="EeXMZ1J7gJ39NjEm3L6s" name="Page-1">
        <mxGraphModel dx="802" dy="561" grid="1" gridSize="10" guides="1" tooltips="1" connect="1" arrows="1" fold="1" page="1" pageScale="1" pageWidth="1100" pageHeight="1700" math="0" shadow="0">
            <root>
                <mxCell id="0"/>
                <mxCell id="1" parent="0"/>
                <mxCell id="2" value="NewsletterForm" style="text;strokeColor=none;fillColor=none;html=1;fontSize=21;fontStyle=0;verticalAlign=middle;align=center;" parent="1" vertex="1">
                    <mxGeometry x="270" y="10" width="330" height="40" as="geometry"/>
                </mxCell>
                <mxCell id="3" value="" style="endArrow=none;html=1;fontSize=21;fillColor=#a20025;strokeColor=#6F0000;strokeWidth=4;" parent="1" edge="1">
                    <mxGeometry width="50" height="50" relative="1" as="geometry">
                        <mxPoint x="430" y="730" as="sourcePoint"/>
                        <mxPoint x="430" y="70" as="targetPoint"/>
                    </mxGeometry>
                </mxCell>
                <mxCell id="4" value="Form" style="swimlane;fontSize=17;fontStyle=0;startSize=23;" parent="1" vertex="1">
                    <mxGeometry x="20" y="80" width="340" height="610" as="geometry"/>
                </mxCell>
                <mxCell id="5" value="&amp;nbsp;state:&amp;nbsp; isFormValid,&amp;nbsp; success, error&amp;nbsp; &amp;nbsp;" style="text;html=1;strokeColor=#3700CC;fillColor=#6a00ff;align=left;verticalAlign=middle;whiteSpace=wrap;rounded=0;fontSize=14;fontColor=#ffffff;fontStyle=0" parent="4" vertex="1">
                    <mxGeometry x="10" y="30" width="320" height="30" as="geometry"/>
                </mxCell>
                <mxCell id="7" value="isFormValid&amp;nbsp; &amp;nbsp;?" style="rhombus;whiteSpace=wrap;html=1;fontSize=14;fillColor=#fff2cc;strokeColor=#d6b656;" parent="4" vertex="1">
                    <mxGeometry x="80" y="70" width="170" height="40" as="geometry"/>
                </mxCell>
                <mxCell id="8" value="" style="shape=process;whiteSpace=wrap;html=1;backgroundOutline=1;fontSize=14;" parent="4" vertex="1">
                    <mxGeometry x="30" y="130" width="270" height="450" as="geometry"/>
                </mxCell>
                <mxCell id="21" value="/api/newsletter" style="text;html=1;strokeColor=none;fillColor=none;align=center;verticalAlign=middle;whiteSpace=wrap;rounded=0;fontSize=14;" parent="4" vertex="1">
                    <mxGeometry x="130" y="140" width="60" height="30" as="geometry"/>
                </mxCell>
                <mxCell id="31" value="setError" style="rounded=0;whiteSpace=wrap;html=1;fontSize=14;fillColor=#e51400;fontColor=#ffffff;strokeColor=#B20000;" parent="4" vertex="1">
                    <mxGeometry x="100" y="200" width="120" height="40" as="geometry"/>
                </mxCell>
                <mxCell id="32" value="setSuccess" style="rounded=0;whiteSpace=wrap;html=1;fontSize=14;fillColor=#60a917;fontColor=#ffffff;strokeColor=#2D7600;" parent="4" vertex="1">
                    <mxGeometry x="100" y="340" width="120" height="40" as="geometry"/>
                </mxCell>
                <mxCell id="34" value="show icon" style="shape=note;whiteSpace=wrap;html=1;backgroundOutline=1;darkOpacity=0.05;fontSize=14;" parent="4" vertex="1">
                    <mxGeometry x="120" y="430" width="80" height="100" as="geometry"/>
                </mxCell>
                <mxCell id="22" value="" style="endArrow=classic;html=1;fontSize=14;exitX=0;exitY=0.25;exitDx=0;exitDy=0;entryX=1;entryY=0.25;entryDx=0;entryDy=0;" parent="1" source="26" edge="1" target="31">
                    <mxGeometry width="50" height="50" relative="1" as="geometry">
                        <mxPoint x="500" y="300" as="sourcePoint"/>
                        <mxPoint x="310" y="301" as="targetPoint"/>
                    </mxGeometry>
                </mxCell>
                <mxCell id="24" value="API handler" style="swimlane;fontSize=14;fontStyle=0;" parent="1" vertex="1">
                    <mxGeometry x="500" y="80" width="320" height="610" as="geometry"/>
                </mxCell>
                <mxCell id="25" value="req.body valid&amp;nbsp; ?" style="rhombus;whiteSpace=wrap;html=1;fontSize=14;fillColor=#fff2cc;strokeColor=#d6b656;" parent="24" vertex="1">
                    <mxGeometry x="80" y="140" width="140" height="40" as="geometry"/>
                </mxCell>
                <mxCell id="26" value="res = 422" style="shape=offPageConnector;whiteSpace=wrap;html=1;fontSize=14;size=0.5;fillColor=#e51400;fontColor=#ffffff;strokeColor=#B20000;" parent="24" vertex="1">
                    <mxGeometry x="30" y="200" width="80" height="50" as="geometry"/>
                </mxCell>
                <mxCell id="27" value="POST" style="shape=process;whiteSpace=wrap;html=1;backgroundOutline=1;fontSize=14;" parent="24" vertex="1">
                    <mxGeometry x="105" y="270" width="90" height="40" as="geometry"/>
                </mxCell>
                <mxCell id="29" value="res = 201" style="shape=offPageConnector;whiteSpace=wrap;html=1;fontSize=14;size=0.5;fillColor=#60a917;fontColor=#ffffff;strokeColor=#2D7600;" parent="24" vertex="1">
                    <mxGeometry x="110" y="340" width="80" height="50" as="geometry"/>
                </mxCell>
                <mxCell id="35" value="" style="endArrow=classic;html=1;entryX=0.5;entryY=0;entryDx=0;entryDy=0;" edge="1" parent="24" source="25" target="26">
                    <mxGeometry width="50" height="50" relative="1" as="geometry">
                        <mxPoint x="-100" y="230" as="sourcePoint"/>
                        <mxPoint x="-50" y="180" as="targetPoint"/>
                    </mxGeometry>
                </mxCell>
                <mxCell id="36" value="" style="endArrow=classic;html=1;exitX=0.5;exitY=1;exitDx=0;exitDy=0;entryX=0.5;entryY=0;entryDx=0;entryDy=0;" edge="1" parent="24" source="25" target="27">
                    <mxGeometry width="50" height="50" relative="1" as="geometry">
                        <mxPoint x="-100" y="230" as="sourcePoint"/>
                        <mxPoint x="-50" y="180" as="targetPoint"/>
                    </mxGeometry>
                </mxCell>
                <mxCell id="37" value="" style="endArrow=classic;html=1;exitX=0.5;exitY=1;exitDx=0;exitDy=0;entryX=0.5;entryY=0;entryDx=0;entryDy=0;" edge="1" parent="24" source="27" target="29">
                    <mxGeometry width="50" height="50" relative="1" as="geometry">
                        <mxPoint x="-100" y="230" as="sourcePoint"/>
                        <mxPoint x="-50" y="180" as="targetPoint"/>
                    </mxGeometry>
                </mxCell>
                <mxCell id="38" value="N" style="text;html=1;strokeColor=none;fillColor=none;align=center;verticalAlign=middle;whiteSpace=wrap;rounded=0;fontSize=10;" vertex="1" parent="24">
                    <mxGeometry x="50" y="160" width="60" height="30" as="geometry"/>
                </mxCell>
                <mxCell id="30" value="" style="endArrow=classic;html=1;fontSize=14;exitX=0;exitY=0.25;exitDx=0;exitDy=0;entryX=1;entryY=0.25;entryDx=0;entryDy=0;" parent="1" source="29" edge="1" target="32">
                    <mxGeometry width="50" height="50" relative="1" as="geometry">
                        <mxPoint x="410" y="400" as="sourcePoint"/>
                        <mxPoint x="300" y="440" as="targetPoint"/>
                    </mxGeometry>
                </mxCell>
            </root>
        </mxGraphModel>
    </diagram>
</mxfile>